<?xml version="1.0" standalone="no"?><!DOCTYPE svg PUBLIC "-//W3C//DTD SVG 1.1//EN" "http://www.w3.org/Graphics/SVG/1.1/DTD/svg11.dtd"><svg t="1610334230632" class="icon" viewBox="0 0 1024 1024" version="1.1" xmlns="http://www.w3.org/2000/svg" p-id="760" xmlns:xlink="http://www.w3.org/1999/xlink" width="200" height="200"><defs><style type="text/css"></style></defs><path d="M157.32736 199.68C127.01696 199.68 102.4 224.31744 102.4 254.65344s24.61696 54.96832 54.92736 54.96832 54.92224-24.63232 54.92224-54.96832C212.2496 224.31744 187.63776 199.68 157.32736 199.68z m192.13312 95.6928H883.456c21.05856 0 38.144-18.2272 38.144-40.71936 0-22.49728-17.08544-40.71936-38.144-40.71936H349.46048c-21.05344 0-38.144 18.22208-38.144 40.71936s17.09056 40.71936 38.144 40.71936zM157.32736 457.02656C127.01696 457.02656 102.4 481.664 102.4 512s24.61696 54.97344 54.92736 54.97344S212.2496 542.336 212.2496 512s-24.61184-54.97344-54.92224-54.97344z m726.12864 14.25408H349.46048c-21.05344 0-38.144 18.22208-38.144 40.71936s17.09056 40.71936 38.144 40.71936H883.456c21.05856 0 38.144-18.22208 38.144-40.71936s-17.08544-40.71936-38.144-40.71936z m-726.12864 243.0976c-30.3104 0-54.92736 24.63232-54.92736 54.96832C102.4 799.68256 127.01696 824.32 157.32736 824.32s54.92224-24.63744 54.92224-54.97344-24.61184-54.96832-54.92224-54.96832z m726.12864 14.24896H349.46048c-21.05344 0-38.144 18.2272-38.144 40.71936 0 22.49728 17.09056 40.71936 38.144 40.71936H883.456c21.05856 0 38.144-18.22208 38.144-40.71936s-17.08544-40.71936-38.144-40.71936z" p-id="761" fill="#90a4ae"></path></svg>