<?xml version="1.0" standalone="no"?><!DOCTYPE svg PUBLIC "-//W3C//DTD SVG 1.1//EN" "http://www.w3.org/Graphics/SVG/1.1/DTD/svg11.dtd"><svg t="1610353576664" class="icon" viewBox="0 0 1024 1024" version="1.1" xmlns="http://www.w3.org/2000/svg" p-id="1183" xmlns:xlink="http://www.w3.org/1999/xlink" width="200" height="200"><defs><style type="text/css"></style></defs><path d="M765.30304 128a25.2672 25.2672 0 0 1 23.04 14.6944l156.928 333.5936a25.6 25.6 0 0 1-5.888 29.7984L520.56704 889.344a25.6 25.6 0 0 1-17.408 6.7072 25.8048 25.8048 0 0 1-17.664-7.04L84.59904 507.5712a25.6 25.6 0 0 1-5.376-29.6704l161.536-335.36a25.8816 25.8816 0 0 1 23.04-14.464h501.504m0-76.8H263.79904a102.528 102.528 0 0 0-92.16 57.9072L10.10304 444.672a102.528 102.528 0 0 0 21.76 118.656l400.896 381.44a102.4 102.4 0 0 0 139.52 1.3568l418.816-383.2832a102.7328 102.7328 0 0 0 23.552-119.1424L857.97504 110.1056a102.4 102.4 0 0 0-92.672-58.88z" fill="#333333" p-id="1184"></path><path d="M512.11904 742.5792a75.4176 75.4176 0 0 1-59.392-29.2352l-187.648-238.3104a40.704 40.704 0 0 1 5.376-56.0128 37.4528 37.4528 0 0 1 54.016 5.632L512.11904 663.04l187.648-238.3104a37.4784 37.4784 0 0 1 54.016-5.632 40.704 40.704 0 0 1 5.376 56.0128l-187.648 238.3104A75.4176 75.4176 0 0 1 512.11904 742.5792z" fill="#ed6c00" p-id="1185" data-spm-anchor-id="a313x.7781069.0.i2" class="selected"></path></svg>